<svg xmlns="http://www.w3.org/2000/svg" xmlns:xlink="http://www.w3.org/1999/xlink" width="423" height="28" viewBox="0 0 423 28">
  <defs>
    <polygon id="tensure-logo-header-dark-a" points=".535 .467 37.111 .467 37.111 26.977 .535 26.977"/>
    <polygon id="tensure-logo-header-dark-c" points=".959 .467 36.513 .467 36.513 26.977 .959 26.977"/>
    <polygon id="tensure-logo-header-dark-e" points=".36 .467 32.256 .467 32.256 27 .36 27"/>
  </defs>
  <g fill="none" fill-rule="evenodd">
    <polygon fill="#F1F1F1" points="0 1 0 6.378 14.176 6.378 14.175 27.51 22.051 27.51 22.094 6.378 36.227 6.378 36.227 1"/>
    <polygon fill="#F1F1F1" points="66.082 1 66.082 27.51 97.977 27.51 97.978 22.298 73.781 22.298 73.781 16.526 93.165 16.526 93.165 11.435 73.781 11.435 73.781 6.378 97.978 6.378 97.977 1"/>
    <polygon fill="#F1F1F1" points="154.345 1 154.419 20.138 135.28 1 127.835 1 127.833 27.51 135.298 27.51 135.298 8.555 154.345 27.51 161.809 27.534 161.809 1"/>
    <g transform="translate(191 .533)">
      <path fill="#F1F1F1" d="M0.6644,19.5618 L7.8834,18.3198 C8.8904,20.6658 12.1714,22.4248 19.7844,22.4248 C27.2224,22.4248 30.1534,21.4248 30.1534,19.5618 C30.1534,17.1828 26.6534,16.8028 19.4344,16.2168 C11.6024,15.5958 2.4584,14.7688 2.4584,8.4218 C2.4584,3.2838 8.4084,0.4898 19.2594,0.4898 C31.2474,0.4898 35.4044,3.8008 36.9354,6.4908 L29.8474,8.4218 C28.6654,6.4908 25.4724,5.2838 19.2154,5.2838 C12.8724,5.2838 9.9404,6.1808 9.9404,7.9048 C9.9404,10.1818 13.0904,10.4918 20.0914,11.0428 C28.0974,11.6638 37.6794,12.4228 37.6794,18.9758 C37.6794,23.1148 33.9164,26.9768 19.9154,26.9768 C6.6584,26.9768 2.1954,23.5278 0.6644,19.5618"/>
      <g transform="translate(67)">
        <mask id="tensure-logo-header-dark-b" fill="#fff">
          <use xlink:href="#tensure-logo-header-dark-a"/>
        </mask>
        <path fill="#F1F1F1" d="M0.5354,16.1487 L0.5354,0.4667 L7.9984,0.4667 L7.9994,16.0147 C7.9994,19.9237 12.2614,21.5987 18.9104,21.5987 C25.5174,21.5987 29.6324,19.9137 29.6324,16.0047 L29.6314,0.4667 L37.1114,0.4667 L37.1114,16.1487 C37.1114,23.1047 30.5924,26.9767 18.8244,26.9767 C7.0984,26.9767 0.5354,23.1047 0.5354,16.1487" mask="url(#tensure-logo-header-dark-b)"/>
      </g>
      <g transform="translate(133)">
        <mask id="tensure-logo-header-dark-d" fill="#fff">
          <use xlink:href="#tensure-logo-header-dark-c"/>
        </mask>
        <path fill="#F1F1F1" d="M22.8792,12.4065 C26.8172,12.4065 28.6542,11.4025 28.6542,9.0725 C28.6542,6.7055 26.8172,5.7015 22.8792,5.7015 L8.5712,5.7015 L8.5712,12.4065 L22.8792,12.4065 Z M0.9592,0.4665 L23.1412,0.4665 C31.2792,0.4665 36.1362,2.7975 36.1362,8.8925 C36.1362,14.3165 31.4242,16.2705 26.9182,17.3825 L36.5132,26.9765 L28.3842,26.9765 L18.7812,17.3745 L8.5712,17.3905 L8.5712,26.9765 L1.1152,26.9765 L0.9592,0.4665 Z" mask="url(#tensure-logo-header-dark-d)"/>
      </g>
      <g transform="translate(199)">
        <mask id="tensure-logo-header-dark-f" fill="#fff">
          <use xlink:href="#tensure-logo-header-dark-e"/>
        </mask>
        <polygon fill="#F1F1F1" points=".36 .467 32.256 .467 32.256 5.845 8.061 5.845 8.061 10.9 27.443 10.9 27.443 15.992 8.061 15.992 8.061 21.765 32.256 21.765 32.256 27 .36 27" mask="url(#tensure-logo-header-dark-f)"/>
      </g>
    </g>
  </g>
</svg>
